<svg id="Layer_1" data-name="Layer 1" xmlns="http://www.w3.org/2000/svg" xmlns:xlink="http://www.w3.org/1999/xlink" viewBox="0 0 108.5 65.12"><defs><style>.cls-1{fill:url(#linear-gradient);}.cls-2{fill:#634e42;}.cls-3{fill:#683c11;}.cls-4{fill:#7d4e24;}.cls-5{font-size:9px;fill:#a48a7b;font-family:BerlinSansFB-Reg, Berlin Sans FB;}</style><linearGradient id="linear-gradient" y1="54.22" x2="103.48" y2="54.22" gradientUnits="userSpaceOnUse"><stop offset="0" stop-color="#634e42"/><stop offset="0.5" stop-color="#7d4e24"/><stop offset="1" stop-color="#683c11"/></linearGradient></defs><rect class="cls-1" y="53.19" width="103.48" height="2.06"/><path class="cls-2" d="M38.83,11.34c-.63.64-1.53,1.63-2.7,3A29.88,29.88,0,0,1,34.08,17a.67.67,0,0,1-.62.18s-1-.66-3-2a17.48,17.48,0,0,0-5.2-2.53q-6.29-1.5-7.61,4-.75,3.09,3.12,6.43,6.49,5.64,7.14,6.41A11.89,11.89,0,0,1,30,40.06a14.54,14.54,0,0,1-9,10.62,22.72,22.72,0,0,1-14.32.76C4.3,50.85,3.05,50.26,3,49.67c.11-.89.21-2.2.29-4,0-.72-.06-1.82-.12-3.28a1.94,1.94,0,0,1,0-.6.46.46,0,0,1,.63-.36c.54.13,1.37.39,2.47.78s1.94.64,2.51.78q10.59,2.53,12.23-4.3.81-3.35-2.88-6.83-6.72-6.32-6.85-6.53A11.74,11.74,0,0,1,9.25,15a13.58,13.58,0,0,1,6.62-9.19A15.45,15.45,0,0,1,27.28,4.63,26.65,26.65,0,0,1,33.36,7a18.17,18.17,0,0,1,5.24,3.79A1.47,1.47,0,0,1,38.83,11.34Z"/><path class="cls-3" d="M108.47,6.67c.1.6-.06.93-.47,1q-1,.17-12.34,1.67,1.47,10.62,2.56,17c.45,2.66,1.22,6.62,2.32,11.91s1.87,9.25,2.32,11.91c.08.48-.22.78-.89.89-.41.07-1,.15-1.92.22s-1.52.15-2,.23-1,.21-1.89.42-1.47.36-1.89.43a.78.78,0,0,1-1-.72q-.67-3.94-1.68-11.93t-1.69-12q-1.05-6.16-3.25-16.88-8.85,2.06-13,2.77c-.28,0-.43-.05-.47-.28a8,8,0,0,1,0-1.85l.15-1.88a28.38,28.38,0,0,1-.09-3.45.63.63,0,0,1,.52-.55l.42,0q12.39-1.35,16.31-2Q94,3,101.76,1.13A35.32,35.32,0,0,0,106.17,0q.9-.15,1.11.45a23.58,23.58,0,0,0,.5,3.38,13.78,13.78,0,0,0,.34,1.39C108.3,5.87,108.41,6.34,108.47,6.67Z"/><path class="cls-4" d="M77.73,3.58q0,4-.28,12.19T77.17,28q0,3.82.07,11.48c0,5.1.07,8.92.07,11.48,0,.77-.3,1.16-.88,1.16-.35,0-.88,0-1.58-.11s-1.24-.1-1.59-.1-1,0-1.72.1-1.35.11-1.72.11-.93-.39-1.51-1.16q-7.61-10.23-23-30.52Q42.9,17.36,42.5,17c-.23,0-.35.48-.35,1.44q0,5.41.18,16.26T42.5,51c0,.77-.23,1.16-.7,1.16s-1,0-1.83-.11-1.43-.1-1.83-.1-1,0-1.88.1-1.46.11-1.88.11c-.59,0-.88-.24-.88-.71q0-3.86.37-11.65t.37-11.69q0-4.26-.32-15.33-.06-2.88-.35-8.65l0-.45c0-.36.25-.54.84-.57C35.9,3.06,37.1,3,38,2.94a18.37,18.37,0,0,0,1.86-.28,10.84,10.84,0,0,1,1.83-.21c.21,0,.57.34,1.09,1Q50.84,14.59,67.5,36.52c.49.61,1,1.13,1.37,1.58a56.27,56.27,0,0,0,.24-6.75q0-4.58-.33-13.71C68.56,11.54,68.45,7,68.45,4c0-.77.23-1.16.7-1.16s1.06,0,1.92.11S72.56,3,73,3s1.12,0,2-.1,1.55-.11,2-.11S77.73,3.06,77.73,3.58Z"/><text class="cls-5" transform="translate(12.21 63.29)">Antiques and Auctions</text></svg>